<svg xmlns="http://www.w3.org/2000/svg" width="180" height="180" fill="none"><path fill="#fff" d="M0 0h180v180H0z"/><path fill="#FFF100" d="M162.497 87.63a12.13 12.13 0 0 0-7.523-3.859q.588-.726 1.168-1.46c4.211-5.335 8.217-12.489 5.153-18.546-3.555-7.016-13.591-6.955-21.153-4.795-2.874.826-5.7 1.81-8.465 2.949 2.673-8.18 2.711-17.427-3.379-23.071-7.164-6.647-18.793-4.514-27.507-.066l-.849.44c2.662-7.164 3.682-15.607-1.46-20.942-6.112-6.388-16.782-4.129-24.67-.15a85.07 85.07 0 0 0-43.308 53.164C29.22 76.083 28.46 81.56 31.2 85.7c3.307 5.021 10.764 5.876 16.258 3.412 5.495-2.464 9.447-7.396 12.93-12.318s6.834-10.13 11.756-13.608l1.102 1.395a67.6 67.6 0 0 0-7.165 16.286 91 91 0 0 0 12.192-9.76l6.205 8.051c-6.613 6.917-10.785 16.1-11.022 25.628-.298 13.376 7.77 26.819 20.116 31.966a28.9 28.9 0 0 0 10.29 2.205c4.558 10.857 14.048 19.615 25.352 23.043-8.267-6.063-11.485-17.802-8.305-27.419h-.072l.083-.055v.044c16.44-2.491 31.883-12.213 40.409-26.56 3.704-6.266 5.941-14.88 1.169-20.38"/><mask id="a" width="137" height="148" x="29" y="14" maskUnits="userSpaceOnUse" style="mask-type:alpha"><path fill="#FFF100" d="M162.497 87.63a12.13 12.13 0 0 0-7.523-3.859q.588-.726 1.168-1.46c4.211-5.335 8.217-12.489 5.153-18.546-3.555-7.016-13.591-6.955-21.153-4.795-2.874.826-5.7 1.81-8.465 2.949 2.673-8.18 2.711-17.427-3.379-23.071-7.164-6.647-18.793-4.514-27.507-.066l-.849.44c2.662-7.164 3.682-15.607-1.46-20.942-6.112-6.388-16.782-4.129-24.67-.15a85.07 85.07 0 0 0-43.308 53.164C29.22 76.083 28.46 81.56 31.2 85.7c3.307 5.021 10.764 5.876 16.258 3.412 5.495-2.464 9.447-7.396 12.93-12.318s6.834-10.13 11.756-13.608l1.102 1.395a67.6 67.6 0 0 0-7.165 16.286 91 91 0 0 0 12.192-9.76l6.205 8.051c-6.613 6.917-10.785 16.1-11.022 25.628-.298 13.376 7.77 26.819 20.116 31.966a28.9 28.9 0 0 0 10.29 2.205c4.558 10.857 14.048 19.615 25.352 23.043-8.267-6.063-11.485-17.802-8.305-27.419h-.072l.083-.055v.044c16.44-2.491 31.883-12.213 40.409-26.56 3.704-6.266 5.941-14.88 1.169-20.38"/></mask><g mask="url(#a)"><path fill="#96DAE2" d="M59.654 33.122H37.972v21.682h21.682zM103.018 33.122H81.336v21.682h21.682zM146.376 33.122h-21.682v21.682h21.682zM124.699 54.804h-21.681v21.681h21.681zM81.336 54.804H59.654v21.681h21.682zM59.654 76.485H37.972v21.682h21.682zM103.018 76.485H81.336v21.682h21.682zM146.376 76.485h-21.682v21.682h21.682zM124.699 98.167h-21.681v21.682h21.681zM81.336 98.167H59.654v21.682h21.682zM59.654 119.843H37.972v21.682h21.682zM103.018 119.843H81.336v21.682h21.682z"/><path fill="#96DAE2" d="M146.376 119.843h-21.682v21.682h21.682z"/><path fill="#C98F01" d="M81.336 33.122H59.654v21.682h21.682zM124.699 33.122h-21.681v21.682h21.681zM146.376 54.804h-21.682v21.681h21.682zM103.018 54.804H81.336v21.681h21.682zM59.654 54.804H37.972v21.681h21.682zM81.336 76.485H59.654v21.682h21.682zM124.699 76.485h-21.681v21.682h21.681zM81.336 119.843H59.654v21.682h21.682zM124.699 119.843h-21.681v21.682h21.681z"/><path fill="#C98F01" d="M146.376 98.167h-21.682v21.682h21.682zM103.018 98.167H81.336v21.682h21.682zM59.654 98.167H37.972v21.682h21.682z"/></g><path fill="#007232" d="M117.105 82.531c-9-12.858-27.193-25.556-35.896-29.331a79 79 0 0 0-18.292-5.655 118 118 0 0 0-12.406-1.604A53.1 53.1 0 0 0 32.5 47.892c-4.481 1.284-8.736 3.059-12.467 5.886-7.49 5.639-11.254 13.167-11.023 22.487.21 7.572 3.07 14.373 7.099 20.679a62.6 62.6 0 0 0 9.716 11.706c.551.523.601.6 1.03.975-3.036 3.037-3.857 8.052-2.964 12.247 1.223 5.698 6.211 11.022 11.855 12.251.667.144 2.678.353 2.623-.231 0-.221-.804-.662-.97-.761-2.7-1.576-3.902-4.029-3.957-7.049-.033-2.067.551-3.891 2.282-5.302 1.84-1.515 3.858-1.102 5.83 0 1.103.629 2.205 1.268 3.308 1.869a94.8 94.8 0 0 0 24.69 9.22 81 81 0 0 0 15.35 1.852 55.8 55.8 0 0 0 14.88-1.494c7.165-1.763 13.614-4.817 18.739-10.367 4.409-4.778 6.36-10.471 6.586-16.776.276-7.369-3.847-16.617-8.002-22.553"/><path fill="#00F613" d="M85.144 128.265c23.335 0 42.251-18.916 42.251-42.25 0-23.335-18.916-42.25-42.25-42.25-23.335 0-42.251 18.915-42.251 42.25 0 23.334 18.916 42.25 42.25 42.25"/><path fill="#fff" d="M104.484 99.11c0 .104-.033.237-.05.385a8 8 0 0 1-3.444 6.101c-3.307 2.326-9.31 2.447-11.85 1.103l-.298-.155c-2.849-1.488-10.857-5.676-15.36-12.125a92 92 0 0 1-4.007-6.239c-2.617-4.47-4.486-8.641-5.191-11.827-1.03-4.635-.386-7.12-.028-8.267s2.155-6.492 6.316-8.069c0 0 1.39-.512 2.028-.375l3.566.761a2.06 2.06 0 0 1 1.141 1.46c.121.552.584 2.938 1.014 5.16.397 2.033.766 3.945.816 4.227v.038c.116.617.37 2.05-.8 3.037-1.168.986-3.631 2.844-3.631 2.844a1.42 1.42 0 0 0-.49 1.785 37.2 37.2 0 0 0 4.508 8.852c2.496 3.428 5.842 6.272 7.594 7.297 1.61.937 2.238.397 3.043-.303l.22-.188c.926-.777 3.78-3.136 3.78-3.136a1.82 1.82 0 0 1 2.393.05c1.372 1.025 8.019 6.206 8.019 6.206a1.23 1.23 0 0 1 .711 1.377"/></svg>