<svg xmlns="http://www.w3.org/2000/svg" width="259" height="280" fill="none"><path fill="#fff" d="M.5 0h258v280H.5z"/><path fill="#BC1E5D" d="M222.746 68.632c-10.091-13.87-32.612-14.188-45.476-8.156a24.75 24.75 0 0 0 2.608-20.206c-3.41-10.574-15.193-17.089-26.275-17.56-14.824-.623-28.808 2.545-38.376 8.207-20.08 11.86-28.337 28.96-30.055 39.445-5.37-10.484-24.316-23.806-49.968-6.59a21.95 21.95 0 0 0-9.632 17.991c.115 8.449 6.095 15.69 12.635 21.033A77.25 77.25 0 0 0 90.81 119.91c-6.617 6.591-4.11 31.811 33.083 31.671a85 85 0 0 0 8.907 6.731l-9.225 17.686a1.845 1.845 0 0 0 2.214 2.545l29.163-9.721a88 88 0 0 0 31.645 4.059c8.818-.509 18.056-2.609 24.469-8.691 8.907-8.41 9.899-23.285 3.486-33.668s-19.086-16.058-31.301-15.511c9.797-.356 19.837-.763 28.909-4.478 9.072-3.716 17.152-11.452 18.399-21.186 1.018-7.558-3.308-14.544-7.812-20.715Z"/><path fill="#FA0CF7" d="M122.225 165.921a36 36 0 0 0-2.418-3.665c-2.544-3.817-5.267-7.558-7.634-11.452a12.48 12.48 0 0 1-1.145-11.324c1.438-3.448.611-6.362-.916-9.174-2.545-4.912-5.446-9.709-8.207-14.557q.02-.139.076-.267c.433-.649.903-1.272 1.272-1.934 3.818-6.057 4.848-12.457 1.489-18.946a15.83 15.83 0 0 0-16.541-8.97 64.2 64.2 0 0 0-15.053 3.55 40.5 40.5 0 0 1-19.875 2.391 40 40 0 0 0-6.744-.343c-11.872.305-21.81 4.822-28.413 15.154-8.398 5.726-13.691 14.061-15.154 21.86a20.6 20.6 0 0 0-.827 3.283c-1.413 9.569 2.035 19.456 7.85 27.255a30 30 0 0 0 10.765 9.365q1.006.473 2.061.827c6.515 4.721 10.74 11.198 13.92 18.54 4.161 9.581-10.739 27.102-19.226 45.068 11.121.777 25.678-.381 43.262 9.531 7.177 4.046 13.424 9.747 20.283 14.887-1.145-6.616-2.443-13.029-3.321-19.506-.815-5.993-1.782-12.063-1.578-18.056.242-6.972-.573-13.665 6.108-11.757 8.041 2.303 12.724 4.466 18.729 4.352a10.73 10.73 0 0 0 8.271-3.194c2.545-2.685 2.863-5.089 1.54-9.009-1.731-5.166-.153-6.489.471-6.896 2.684-1.718 3.028-3.55 1.348-5.739v-.063a23.1 23.1 0 0 1-10.395-4.657 47 47 0 0 0 9.11-.077c3.41-.687 3.894-2.43 2.825-4.402-.102-.166-.827-1.413-.904-1.591-1.132-2.786-.292-2.646 2.545-3.817 1.349-.547 2.825-.776 4.212-1.272 2.685-.866 3.537-2.736 2.214-5.395"/><mask id="a" width="122" height="163" x="1" y="94" maskUnits="userSpaceOnUse" style="mask-type:alpha"><path fill="#F0F" fill-rule="evenodd" d="M30.537 94.95c2.177 2.927 4.873 5.56 7.67 7.846A77.25 77.25 0 0 0 90.81 119.91c-5.83 5.808-4.577 26.082 21.254 30.72q.054.089.11.174c1.578 2.596 3.314 5.124 5.05 7.652a335 335 0 0 1 2.584 3.8 36 36 0 0 1 2.418 3.665c1.323 2.659.471 4.529-2.214 5.395-.628.224-1.274.394-1.918.563-.779.205-1.555.41-2.294.709-.358.148-.685.275-.979.389-2.039.793-2.555.994-1.566 3.428.077.178.802 1.425.904 1.591 1.069 1.972.585 3.715-2.825 4.402a47 47 0 0 1-9.11.077 23.1 23.1 0 0 0 10.395 4.657v.063c1.68 2.189 1.336 4.021-1.348 5.739-.624.407-2.202 1.73-.471 6.896 1.323 3.919 1.005 6.324-1.54 9.009a10.73 10.73 0 0 1-8.271 3.194c-4.477.085-8.22-1.095-13.166-2.656a210 210 0 0 0-5.564-1.696c-5.871-1.677-5.953 3.29-6.05 9.252-.014.821-.028 1.661-.057 2.505-.181 5.339.566 10.739 1.307 16.091q.137.984.27 1.965c.61 4.499 1.423 8.966 2.246 13.493.362 1.991.726 3.992 1.076 6.013-2.086-1.563-4.115-3.178-6.131-4.783-4.614-3.672-9.158-7.288-14.152-10.104-14.786-8.335-27.431-8.843-37.693-9.255-1.942-.078-3.799-.152-5.569-.276 2.692-5.697 6.028-11.35 9.197-16.72 6.824-11.561 12.87-21.806 10.03-28.349-3.182-7.341-7.406-13.818-13.92-18.539a19 19 0 0 1-2.062-.827 30 30 0 0 1-10.765-9.365c-5.815-7.8-9.263-17.686-7.85-27.255a20.5 20.5 0 0 1 .827-3.283c1.463-7.8 6.756-16.134 15.154-21.86 3.345-5.234 7.546-8.975 12.42-11.433Z" clip-rule="evenodd"/></mask><g mask="url(#a)"><path fill="#00F6FF" d="M-5.5 103.667h37.833V141.5H-5.5zm0 75.667h37.833v37.833H-5.5zm75.666-75.667h37.833V141.5H70.166zm0 75.667h37.833v37.833H70.166zM32.334 65.833h37.833v37.833H32.334zm0 75.667h37.833v37.833H32.334zm0 75.667h37.833V255H32.334zM108 65.833h37.833v37.833H108zm0 75.667h37.833v37.833H108zm0 75.667h37.833V255H108z"/><path fill="#BC1E5D" d="M32.334 103.667h37.833V141.5H32.334zm0 75.667h37.833v37.833H32.334zM108 103.667h37.833V141.5H108zm0 75.667h37.833v37.833H108zM70.166 65.833h37.833v37.833H70.166zm0 75.667h37.833v37.833H70.166zm0 75.667h37.833V255H70.166zM-5.5 65.833h37.833v37.833H-5.5zm0 75.667h37.833v37.833H-5.5zm0 75.667h37.833V255H-5.5z"/></g><path fill="#00F6FF" d="M257.5 73h-126v16h126zm0 29.256h-126v16h126zm0 29.256h-126v16h126z"/></svg>